HIERARCHY
ROOT Hips
{
	OFFSET 0.00 0.00 0.00
	CHANNELS 6 Xposition Yposition Zposition Yrotation Xrotation Zrotation
	JOINT LHipJoint
	{
		OFFSET	0.0000	0.0000	0.0000
		CHANNELS 3 Yrotation Xrotation Zrotation
		JOINT LeftUpLeg
		{
			OFFSET	1.0138	-0.0809	-0.0827
			CHANNELS 3 Yrotation Xrotation Zrotation
			JOINT LeftLeg
			{
				OFFSET	0.4110	-3.9095	0.3245
				CHANNELS 3 Yrotation Xrotation Zrotation
				JOINT LeftFoot
				{
					OFFSET	0.3810	-4.0555	-0.1470
					CHANNELS 3 Yrotation Xrotation Zrotation
					JOINT LeftToeBase
					{
						OFFSET	0.1396	-0.4462	1.3079
						CHANNELS 3 Yrotation Xrotation Zrotation
						End Site
						{
							OFFSET 0.0161 -0.0248 0.1809
						}
					}
				}
			}
		}
	}
	JOINT LowerBack
	{
		OFFSET	0.0000	0.7977	-0.3873
		CHANNELS 3 Yrotation Xrotation Zrotation
		JOINT Spine
		{
			OFFSET	0.0000	1.4131	0.1715
			CHANNELS 3 Yrotation Xrotation Zrotation
			JOINT Spine1
			{
				OFFSET	0.0000	1.4392	-0.1032
				CHANNELS 3 Yrotation Xrotation Zrotation
				JOINT LeftShoulder
				{
					OFFSET	0.2274	1.0382	0.4032
					CHANNELS 3 Yrotation Xrotation Zrotation
					JOINT LeftArm
					{
						OFFSET	1.4730	-0.2267	-0.0231
						CHANNELS 3 Yrotation Xrotation Zrotation
						JOINT LeftForeArm
						{
							OFFSET	1.6131	-1.8059	0.0081
							CHANNELS 3 Yrotation Xrotation Zrotation
							JOINT LeftHand
							{
								OFFSET	1.2197	-1.2423	1.6317
								CHANNELS 3 Yrotation Xrotation Zrotation
								JOINT LThumb
								{
									OFFSET	0.0109	-0.0753	0.4387
									CHANNELS 3 Yrotation Xrotation Zrotation
									End Site
									{
										OFFSET -0.2090 -0.0868 0.2097
									}
								}
								JOINT LeftFingerBase
								{
									OFFSET	0.1071	-0.1567	0.2607
									CHANNELS 3 Yrotation Xrotation Zrotation
									JOINT LeftHandFinger1
									{
										OFFSET	0.1706	-0.2492	0.6830
										CHANNELS 3 Yrotation Xrotation Zrotation
										End Site
										{
											OFFSET 0.0335 -0.1507 0.2071
										}
									}
								}
							}
						}
					}
				}
				JOINT Neck
				{
					OFFSET	0.0000	1.7498	0.2381
					CHANNELS 3 Yrotation Xrotation Zrotation
					JOINT Neck1
					{
						OFFSET	0.0000	0.5043	0.1959
						CHANNELS 3 Yrotation Xrotation Zrotation
						JOINT Head
						{
							OFFSET	0.0000	0.5044	0.1959
							CHANNELS 3 Yrotation Xrotation Zrotation
							End Site
							{
								OFFSET 0.0000 1.4798 -0.0693
							}
						}
					}
				}
				JOINT RightShoulder
				{
					OFFSET	-0.2274	1.0382	0.4032
					CHANNELS 3 Yrotation Xrotation Zrotation
					JOINT RightArm
					{
						OFFSET	-1.4730	-0.2267	-0.0231
						CHANNELS 3 Yrotation Xrotation Zrotation
						JOINT RightForeArm
						{
							OFFSET	-1.6131	-1.8059	0.0081
							CHANNELS 3 Yrotation Xrotation Zrotation
							JOINT RightHand
							{
								OFFSET	-1.2197	-1.2423	1.6317
								CHANNELS 3 Yrotation Xrotation Zrotation
								JOINT RThumb
								{
									OFFSET	-0.0109	-0.0753	0.4387
									CHANNELS 3 Yrotation Xrotation Zrotation
									End Site
									{
										OFFSET 0.2090 -0.0868 0.2097
									}
								}
								JOINT RightFingerBase
								{
									OFFSET	-0.1071	-0.1567	0.2607
									CHANNELS 3 Yrotation Xrotation Zrotation
									JOINT RightHandFinger1
									{
										OFFSET	-0.1706	-0.2492	0.6830
										CHANNELS 3 Yrotation Xrotation Zrotation
										End Site
										{
											OFFSET -0.0335 -0.1507 0.2071
										}
									}
								}
							}
						}
					}
				}
			}
		}
	}
	JOINT RHipJoint
	{
		OFFSET	0.0000	0.0000	0.0000
		CHANNELS 3 Yrotation Xrotation Zrotation
		JOINT RightUpLeg
		{
			OFFSET	-1.0138	-0.0809	-0.0827
			CHANNELS 3 Yrotation Xrotation Zrotation
			JOINT RightLeg
			{
				OFFSET	-0.4110	-3.9095	0.3245
				CHANNELS 3 Yrotation Xrotation Zrotation
				JOINT RightFoot
				{
					OFFSET	-0.3810	-4.0555	-0.1470
					CHANNELS 3 Yrotation Xrotation Zrotation
					JOINT RightToeBase
					{
						OFFSET	-0.1396	-0.4462	1.3079
						CHANNELS 3 Yrotation Xrotation Zrotation
						End Site
						{
							OFFSET -0.0161 -0.0248 0.1809
						}
					}
				}
			}
		}
	}
}
MOTION
Frames: 8
Frame Time: 0.0333333
0.6035 8.6244 0.1918 -1.9530 -2.8178 3.2742 0.0000 -0.0000 0.0000 13.7522 0.5655 -10.8267 7.1362 18.9792 2.2800 -1.9788 -16.8600 7.0589 -0.0000 -1.5223 -0.0000 0.0000 -0.0000 0.0000 -0.1949 2.1057 -1.6850 -0.4899 4.2124 -1.9633 0.3674 0.8320 -1.6651 5.4013 -5.3369 -26.8172 13.6580 15.9432 -0.1915 -20.0230 14.5630 14.1520 32.3820 18.3990 15.4594 -12.2346 26.2548 -16.0645 -8.6983 -1.0055 -4.4609 0.4407 -2.8618 1.1562 0.4407 -2.8619 1.1562 3.5874 -1.6826 -2.0373 -4.8450 0.5356 1.8168 -6.7696 9.4027 26.2752 -13.5832 15.8674 0.2106 0.6346 19.8084 -30.5225 -27.9940 -2.6489 -12.2238 -7.8827 8.9539 -1.3728 1.9112 -8.8484 -1.0216 0.0000 -0.0000 0.0000 -4.6382 -23.5980 0.8882 -24.0460 51.7810 -17.7136 -6.2465 -3.3582 -2.1037 -0.0000 -3.0097 -0.0000 
0.6024 8.6190 0.1757 -0.8162 -2.5006 2.9212 0.0000 -0.0000 0.0000 14.5703 3.3429 -9.7176 4.5885 17.6118 1.2741 -2.1532 -18.6151 6.9514 -0.0000 -0.9608 0.0000 0.0000 -0.0000 0.0000 -0.6803 2.1393 -1.4015 -1.3608 4.2807 -1.7643 0.3680 0.8346 -1.5844 1.4586 -8.9495 -25.2099 14.9330 17.2210 0.1482 -19.4160 16.7369 17.3648 32.8100 18.9484 15.8750 -12.9296 26.6531 -16.6902 -8.9614 -0.7294 -4.6796 0.4273 -3.1380 1.2784 0.4272 -3.1378 1.2783 3.6816 -2.1176 -2.0488 -4.9134 0.5333 1.9257 -8.6586 11.2628 25.2545 -14.7866 17.0755 -0.1078 0.3720 20.7732 -31.3971 -27.9940 -2.6489 -12.2238 -8.3532 8.3869 -1.7575 1.4596 -9.4240 -1.3746 0.0000 -0.0000 0.0000 -5.0283 -25.1859 1.7906 -19.4618 43.8823 -12.8687 -7.2257 -4.1285 -0.7300 -0.0000 -0.5893 0.0000 
0.5977 8.6125 0.1618 -0.2294 -2.1515 2.6626 0.0000 -0.0000 0.0000 15.2223 6.6577 -8.6741 2.6709 15.0689 0.5913 -2.1821 -19.5784 6.6622 0.0000 -0.4818 0.0000 0.0000 -0.0000 0.0000 -0.9168 2.1293 -1.1172 -1.7793 4.2565 -1.6122 0.3683 0.8369 -1.5262 -2.1441 -12.7910 -23.9223 16.7252 18.9760 0.6718 -18.5444 19.1108 20.6133 33.1028 19.2021 16.1552 -13.2809 26.8502 -17.0069 -9.0728 -0.6132 -4.7724 0.3832 -3.3431 1.4044 0.3832 -3.3431 1.4044 3.6058 -2.4358 -1.9170 -4.9513 0.5335 1.9960 -10.4657 13.0441 24.4958 -15.8069 18.0830 -0.3969 0.0792 21.8234 -32.2034 -27.9940 -2.6489 -12.2238 -8.5843 8.1053 -1.9458 1.2363 -9.7108 -1.5485 0.0000 -0.0000 0.0000 -4.6930 -25.8169 2.4771 -15.5677 34.0125 -8.7009 -8.6873 -4.8025 -0.3139 -0.0000 0.0000 0.0000 
0.5897 8.6013 0.1505 0.1245 -1.7648 2.4768 0.0000 -0.0000 0.0000 15.2260 10.3295 -7.8320 1.5970 11.5742 0.2808 -2.2795 -19.9602 6.9002 0.0000 -0.0985 0.0000 0.0000 -0.0000 0.0000 -1.0147 2.0121 -0.8162 -1.9734 4.0148 -1.4781 0.3684 0.8385 -1.4963 -5.3904 -16.8950 -22.8560 19.4302 21.5271 1.5594 -17.4456 21.5717 23.8371 33.3185 19.2253 16.3530 -13.3675 26.8984 -17.0850 -9.0609 -0.6255 -4.7624 0.3249 -3.4417 1.4881 0.3249 -3.4417 1.4881 3.4150 -2.5028 -1.7060 -4.9246 0.5376 2.0049 -12.2213 15.0491 23.9863 -16.1007 18.3701 -0.4833 -0.5012 23.1803 -33.0466 -27.9940 -2.6489 -12.2238 -8.5770 8.1143 -1.9399 1.2184 -9.7339 -1.5624 0.0000 -0.0000 0.0000 -4.2263 -25.2550 2.9340 -12.4321 22.4803 -5.2981 -10.2476 -5.3794 0.5117 0.0000 0.0000 0.0000 
0.5760 8.5741 0.1439 0.6065 -1.3718 2.3867 0.0000 -0.0000 0.0000 15.6675 13.8511 -6.8675 0.1404 8.3997 -0.0061 -2.4963 -20.1411 7.8952 0.0000 -0.1331 -0.0000 0.0000 -0.0000 0.0000 -1.1177 1.8415 -0.5548 -2.2001 3.6659 -1.3599 0.3682 0.8391 -1.5007 -8.0587 -20.2755 -21.9353 21.2747 23.1956 2.2287 -15.9361 24.3471 26.9184 33.4957 19.0740 16.5060 -13.2582 26.8376 -16.9864 -8.9531 -0.7381 -4.6727 0.2703 -3.4972 1.4880 0.2703 -3.4972 1.4880 3.1659 -2.3564 -1.5506 -4.8513 0.5420 1.9404 -13.7508 16.9962 23.8042 -15.9640 18.2367 -0.4429 -1.2073 24.6464 -33.9281 -27.9940 -2.6489 -12.2238 -8.3925 8.3392 -1.7896 1.2856 -9.6473 -1.5101 0.0000 -0.0000 0.0000 -3.7080 -25.1658 3.1181 -10.6174 13.2692 -3.3156 -12.3419 -6.9600 1.1488 -0.0000 -0.0000 0.0000 
0.5527 8.5266 0.1453 1.4272 -1.0078 2.4010 0.0000 -0.0000 0.0000 16.2665 16.2034 -5.7258 -0.9726 7.4322 -0.1937 -2.5278 -20.2778 7.8442 0.0000 -1.4573 0.0000 0.0000 -0.0000 0.0000 -1.2877 1.7005 -0.4009 -2.5387 3.3786 -1.2314 0.3673 0.8392 -1.5632 -9.9437 -22.5892 -21.1941 21.7824 23.6444 2.4217 -14.3296 26.9280 29.8724 33.6365 18.7653 16.6170 -12.9725 26.6774 -16.7289 -8.7590 -0.9417 -4.5113 0.2322 -3.6116 1.4041 0.2322 -3.6115 1.4041 2.9180 -2.0856 -1.5312 -4.7642 0.5424 1.8133 -14.8462 18.4489 24.0361 -16.0428 18.3136 -0.4662 -1.6961 25.8452 -34.6920 -27.9940 -2.6489 -12.2238 -8.0600 8.7413 -1.5179 1.4037 -9.4956 -1.4182 0.0000 -0.0000 0.0000 -3.7923 -26.2120 3.2700 -9.7801 8.7967 -2.5627 -15.2601 -8.7290 1.4984 0.0000 -0.0000 0.0000 
0.5170 8.4691 0.1544 2.5209 -0.6956 2.3091 0.0000 -0.0000 0.0000 16.4439 17.2095 -4.3602 -1.5583 8.8796 -0.3751 -2.5571 -20.2427 7.5874 0.0000 -4.1856 -0.0000 0.0000 -0.0000 0.0000 -1.4701 1.6290 -0.2285 -2.8861 3.2328 -0.9968 0.3654 0.8385 -1.7101 -10.6883 -23.1461 -20.9756 20.0571 22.1008 1.7812 -12.8669 28.9776 32.6205 33.7448 18.3182 16.6915 -12.5333 26.4273 -16.3333 -8.4895 -1.2262 -4.2876 0.2019 -3.8109 1.2976 0.2020 -3.8111 1.2976 2.7007 -1.8208 -1.5932 -4.6927 0.5404 1.6850 -15.4087 19.2089 24.6241 -16.5243 18.7817 -0.6105 -1.7994 26.6544 -35.1230 -27.9940 -2.6489 -12.2238 -7.5922 9.2996 -1.1346 1.5688 -9.2842 -1.2894 0.0000 -0.0000 0.0000 -3.8620 -26.2881 3.4944 -9.6139 7.5099 -2.4423 -17.7373 -8.8531 1.6693 0.0000 -0.0000 0.0000 
0.4677 8.4043 0.1831 3.5637 -0.4820 2.0029 0.0000 -0.0000 0.0000 16.3120 17.3024 -2.7298 -1.5077 12.0748 -0.5251 -2.5589 -19.5594 7.3602 0.0000 -8.5434 0.0000 0.0000 -0.0000 0.0000 -1.5968 1.6209 -0.0639 -3.0932 3.2258 -0.5041 0.3634 0.8362 -1.8990 -10.0606 -22.1454 -21.5228 15.8282 18.1039 0.4032 -11.1047 31.2059 35.0397 33.8247 17.7512 16.7357 -11.9637 26.0966 -15.8209 -8.1556 -1.5818 -4.0109 0.1612 -4.0150 1.2334 0.1613 -4.0150 1.2334 2.5040 -1.6848 -1.6162 -4.7185 0.5387 1.6560 -15.4223 19.2235 25.3562 -17.0787 19.3162 -0.7812 -1.5946 27.3558 -35.2439 -27.9940 -2.6489 -12.2238 -7.0027 9.9914 -0.6494 1.7752 -9.0211 -1.1281 0.0000 -0.0000 0.0000 -3.6573 -28.6063 4.1262 -10.5343 14.4771 -3.7074 -17.7553 -8.8718 -1.4714 0.0000 -0.0000 -0.0000 
